# xmcd
#
# Track frame offsets:
#	150
#	15621
#	30323
#	44989
#	59019
#	72657
#	87447
#	101158
#	116049
#	131149
#	144756
#	159892
#	173073
#	189787
#
# Disc length: 2733 seconds
#
# Revision: 0
# Processed by: cddbd v1.5.2PL0 Copyright (c) Steve Scherf et al.
# Submitted via: audiograbber 1.83.01
#
DISCID=c30aab0e
DTITLE=G.G. Anderson - Die Sterne von Rom
DYEAR=2014
DGENRE=Schlager
TTITLE0=Die Sterne von Rom
TTITLE1=Samstag Nacht
TTITLE2=Nie wieder Goodbye
TTITLE3=Goldener Mond von Bahia
TTITLE4=Ich hab' Fernweh
TTITLE5=Du bist mein Spiegel
TTITLE6=Alles oder garnichts
TTITLE7=Liebe im Blut
TTITLE8=Santa Monica
TTITLE9=Sehnsucht nach Sansibar
TTITLE10=Traeume luegen nicht
TTITLE11=Das ist die eine Nacht
TTITLE12=Du kannst mir ruhig mein Herz klau'n
TTITLE13=Der Himmel auf Erden
EXTD=
EXTT0=
EXTT1=
EXTT2=
EXTT3=
EXTT4=
EXTT5=
EXTT6=
EXTT7=
EXTT8=
EXTT9=
EXTT10=
EXTT11=
EXTT12=
EXTT13=
PLAYORDER=
